<svg width="3240" height="2066" viewBox="0 0 3240 2066" fill="none" xmlns="http://www.w3.org/2000/svg">
<path d="M160.814 113.435C175.774 113.435 187.409 123.823 195.72 144.6C159.983 239.344 142.115 362.759 142.115 514.847V650.729H144.608C191.149 604.189 263.038 460.411 360.274 219.398C385.207 187.816 404.322 172.026 417.619 172.026H422.605C436.734 172.026 447.953 179.921 456.264 195.712V219.398C432.994 233.526 376.065 351.124 285.477 572.192L183.254 725.527V728.02C277.166 825.257 374.818 873.875 476.21 873.875H523.582C554.332 873.875 575.109 870.966 585.913 865.149C608.352 874.29 619.572 887.588 619.572 905.041V915.014C619.572 935.791 583.42 946.179 511.116 946.179H492.416C373.571 946.179 260.129 897.145 152.088 799.078H144.608V943.686C144.608 971.943 131.727 986.071 105.963 986.071C82.6927 986.071 71.0575 971.943 71.0575 943.686V795.338C40.3075 772.067 24.9325 747.135 24.9325 720.54C24.9325 698.101 39.0609 686.881 67.3177 686.881V509.861C67.3177 348.631 88.0947 220.644 129.649 125.901C140.453 117.59 150.841 113.435 160.814 113.435ZM693.405 472.462C726.648 473.293 782.746 531.469 861.699 646.989L864.192 668.182C864.192 691.452 807.263 709.321 693.405 721.787L689.665 725.527V730.513C707.118 805.311 725.402 842.709 744.517 842.709H759.476C786.071 842.709 826.378 814.037 880.399 756.692H887.878C904.5 756.692 917.382 768.743 926.524 792.844C926.524 812.79 891.618 847.28 821.807 896.314C803.523 907.118 781.5 915.014 755.736 920C688.419 920 641.462 856.838 614.868 730.513C576.638 724.696 557.523 708.905 557.523 683.142C557.523 664.858 571.651 652.807 599.908 646.989V651.976L612.375 646.989V615.824C612.375 520.249 639.385 472.462 693.405 472.462ZM700.885 562.219H689.665L684.679 608.344V646.989H689.665C736.206 645.327 759.476 640.341 759.476 632.03C737.868 599.618 718.337 576.347 700.885 562.219ZM955.732 499.888C974.846 499.888 995.624 545.597 1018.06 637.016C1049.64 710.152 1067.51 748.797 1071.67 752.952C1075.82 752.952 1091.2 711.398 1117.79 628.29C1144.39 545.182 1169.74 503.628 1193.84 503.628C1216.28 511.939 1227.5 525.236 1227.5 543.52C1158.52 721.371 1124.03 838.969 1124.03 896.314L1100.34 920H1076.65C1046.74 898.392 996.039 784.118 924.566 577.179L913.346 531.053C919.164 510.276 933.292 499.888 955.732 499.888ZM1355.14 472.462C1388.38 473.293 1444.48 531.469 1523.43 646.989L1525.93 668.182C1525.93 691.452 1469 709.321 1355.14 721.787L1351.4 725.527V730.513C1368.85 805.311 1387.13 842.709 1406.25 842.709H1421.21C1447.8 842.709 1488.11 814.037 1542.13 756.692H1549.61C1566.23 756.692 1579.11 768.743 1588.26 792.844C1588.26 812.79 1553.35 847.28 1483.54 896.314C1465.26 907.118 1443.23 915.014 1417.47 920C1350.15 920 1303.2 856.838 1276.6 730.513C1238.37 724.696 1219.26 708.905 1219.26 683.142C1219.26 664.858 1233.38 652.807 1261.64 646.989V651.976L1274.11 646.989V615.824C1274.11 520.249 1301.12 472.462 1355.14 472.462ZM1362.62 562.219H1351.4L1346.41 608.344V646.989H1351.4C1397.94 645.327 1421.21 640.341 1421.21 632.03C1399.6 599.618 1380.07 576.347 1362.62 562.219ZM1760.83 499.888C1831.47 505.705 1866.79 540.195 1866.79 603.358L1869.28 619.564L1866.79 814.037C1866.79 836.476 1879.67 866.811 1905.43 905.041V907.534C1898.79 931.635 1886.74 943.686 1869.28 943.686C1817.76 922.078 1791.99 876.368 1791.99 806.557V790.351L1788.25 787.858L1791.99 782.871V780.378L1795.73 608.344C1795.73 584.243 1785.34 572.192 1764.57 572.192H1749.61C1708.05 588.814 1687.28 679.817 1687.28 845.203C1687.28 902.547 1672.73 931.22 1643.64 931.22C1621.2 931.22 1609.57 917.091 1608.74 888.834V764.172C1608.74 602.942 1622.87 522.327 1651.12 522.327L1663.59 518.587L1689.77 522.327C1712.21 507.368 1735.89 499.888 1760.83 499.888ZM398.92 1139.17C519.426 1139.17 604.197 1253.45 653.231 1482C658.217 1495.29 660.71 1522.3 660.71 1563.03V1571.75C660.71 1659.02 633.285 1759.16 578.433 1872.19C600.041 1879.67 633.285 1883.41 678.163 1883.41C723.873 1883.41 776.231 1867.62 835.238 1836.04C852.69 1836.04 864.741 1850.58 871.39 1879.67C871.39 1915.41 801.994 1941.58 663.204 1958.21H660.71L519.842 1937.01C460.004 1984.39 403.075 2008.07 349.055 2008.07C236.027 2008.07 147.517 1929.95 83.5238 1773.71C62.7467 1712.21 52.3582 1647.38 52.3582 1579.23V1560.53C52.3582 1366.06 101.808 1241.4 200.706 1186.55L274.257 1166.6L301.683 1170.34C333.264 1149.56 365.676 1139.17 398.92 1139.17ZM243.092 1485.74V1524.38C243.092 1670.65 328.693 1778.69 499.896 1848.5C557.241 1768.72 585.913 1675.22 585.913 1568.01V1560.53C585.913 1430.88 544.359 1321.6 461.251 1232.67C435.487 1219.37 416.372 1212.73 403.906 1212.73H391.44C354.872 1212.73 318.305 1240.15 281.737 1295C255.973 1351.52 243.092 1415.09 243.092 1485.74ZM125.909 1555.55V1594.19C125.909 1762.9 185.747 1873.85 305.423 1927.04C315.396 1932.03 329.94 1934.52 349.055 1934.52H356.534C389.778 1934.52 415.957 1924.96 435.072 1905.85V1898.37C258.051 1813.6 169.541 1682.7 169.541 1505.68V1485.74C169.541 1410.94 185.331 1338.22 216.912 1267.58H208.186C153.335 1318.27 125.909 1414.26 125.909 1555.55ZM930.02 1566.77L952.459 1554.3C972.405 1554.3 986.949 1566.35 996.091 1590.45C982.794 1651.95 976.145 1715.11 976.145 1779.94C976.145 1812.35 985.703 1847.67 1004.82 1885.9H1012.3C1036.4 1885.9 1065.07 1790.74 1098.31 1600.43C1109.95 1590.45 1121.17 1585.47 1131.97 1585.47C1157.74 1585.47 1170.62 1631.18 1170.62 1722.59C1181.42 1823.16 1193.47 1873.44 1206.77 1873.44L1225.47 1865.96C1249.57 1875.1 1261.62 1887.98 1261.62 1904.6C1246.66 1936.18 1225.89 1951.97 1199.29 1951.97C1169.37 1951.97 1140.7 1922.05 1113.27 1862.22C1080.03 1932.03 1046.37 1966.93 1012.3 1966.93C961.601 1966.93 926.28 1914.16 906.334 1808.61L902.594 1768.72V1756.25C902.594 1689.77 911.736 1626.6 930.02 1566.77ZM1387.72 1494.46C1420.96 1495.29 1477.06 1553.47 1556.01 1668.99L1558.5 1690.18C1558.5 1713.45 1501.57 1731.32 1387.72 1743.79L1383.98 1747.53V1752.51C1401.43 1827.31 1419.71 1864.71 1438.83 1864.71H1453.79C1480.38 1864.71 1520.69 1836.04 1574.71 1778.69H1582.19C1598.81 1778.69 1611.69 1790.74 1620.83 1814.84C1620.83 1834.79 1585.93 1869.28 1516.12 1918.31C1497.83 1929.12 1475.81 1937.01 1450.05 1942C1382.73 1942 1335.77 1878.84 1309.18 1752.51C1270.95 1746.7 1251.83 1730.91 1251.83 1705.14C1251.83 1686.86 1265.96 1674.81 1294.22 1668.99V1673.98L1306.69 1668.99V1637.82C1306.69 1542.25 1333.7 1494.46 1387.72 1494.46ZM1395.2 1584.22H1383.98L1378.99 1630.34V1668.99H1383.98C1430.52 1667.33 1453.79 1662.34 1453.79 1654.03C1432.18 1621.62 1412.65 1598.35 1395.2 1584.22ZM1674.97 1521.89C1694.09 1521.89 1714.87 1567.6 1737.31 1659.02C1768.89 1732.15 1786.76 1770.8 1790.91 1774.95C1795.07 1774.95 1810.44 1733.4 1837.04 1650.29C1863.63 1567.18 1888.98 1525.63 1913.08 1525.63C1935.52 1533.94 1946.74 1547.24 1946.74 1565.52C1877.76 1743.37 1843.27 1860.97 1843.27 1918.31L1819.58 1942H1795.9C1765.98 1920.39 1715.28 1806.12 1643.81 1599.18L1632.59 1553.05C1638.41 1532.28 1652.54 1521.89 1674.97 1521.89ZM2099.31 1494.46C2132.56 1495.29 2188.66 1553.47 2267.61 1668.99L2270.1 1690.18C2270.1 1713.45 2213.17 1731.32 2099.31 1743.79L2095.57 1747.53V1752.51C2113.03 1827.31 2131.31 1864.71 2150.43 1864.71H2165.38C2191.98 1864.71 2232.29 1836.04 2286.31 1778.69H2293.79C2310.41 1778.69 2323.29 1790.74 2332.43 1814.84C2332.43 1834.79 2297.53 1869.28 2227.72 1918.31C2209.43 1929.12 2187.41 1937.01 2161.65 1942C2094.33 1942 2047.37 1878.84 2020.78 1752.51C1982.55 1746.7 1963.43 1730.91 1963.43 1705.14C1963.43 1686.86 1977.56 1674.81 2005.82 1668.99V1673.98L2018.28 1668.99V1637.82C2018.28 1542.25 2045.29 1494.46 2099.31 1494.46ZM2106.79 1584.22H2095.57L2090.59 1630.34V1668.99H2095.57C2142.11 1667.33 2165.38 1662.34 2165.38 1654.03C2143.78 1621.62 2124.25 1598.35 2106.79 1584.22ZM2660.83 1257.6C2674.96 1257.6 2687.84 1270.9 2699.48 1297.5L2644.62 1644.06V1741.29C2644.62 1842.69 2660.41 1893.38 2692 1893.38C2712.77 1903.35 2723.16 1916.65 2723.16 1933.27C2723.16 1952.39 2706.54 1963.61 2673.3 1966.93C2636.73 1966.93 2608.06 1933.27 2587.28 1865.96H2574.81C2544.06 1933.27 2506.66 1966.93 2462.62 1966.93C2411.09 1966.93 2379.92 1927.87 2369.12 1849.75C2369.12 1759.16 2429.79 1663.17 2551.13 1561.78C2575.23 1561.78 2587.28 1528.12 2587.28 1460.8C2605.56 1325.34 2630.08 1257.6 2660.83 1257.6ZM2442.67 1839.78V1873.44L2462.62 1893.38H2470.1C2496.69 1893.38 2527.86 1813.18 2563.59 1652.78H2556.11C2480.49 1728.41 2442.67 1790.74 2442.67 1839.78ZM2954.18 1472.02C3015.68 1472.02 3062.22 1517.73 3093.8 1609.15L3098.78 1635.33C3098.78 1724.26 3057.23 1815.26 2974.12 1908.34C2940.88 1939.09 2907.22 1954.47 2873.15 1954.47C2823.28 1954.47 2787.96 1925.79 2767.18 1868.45C2759.7 1841.85 2755.96 1818.58 2755.96 1798.64V1783.68C2755.96 1652.37 2803.75 1552.64 2899.32 1484.49C2915.95 1476.18 2934.23 1472.02 2954.18 1472.02ZM2829.51 1796.15C2829.51 1852.66 2844.06 1880.92 2873.15 1880.92C2933.81 1880.92 2984.1 1803.21 3023.99 1647.8V1624.11C3009.86 1572.58 2983.68 1546.82 2945.45 1546.82C2930.49 1546.82 2923.01 1557.21 2923.01 1577.99C2923.01 1592.11 2906.39 1603.33 2873.15 1611.64C2844.06 1660.68 2829.51 1722.18 2829.51 1796.15Z" fill="#5FA343"/>
</svg>
